<svg id="visual" viewBox="0 0 900 600" width="900" height="600" xmlns="http://www.w3.org/2000/svg" xmlns:xlink="http://www.w3.org/1999/xlink" version="1.1"><rect x="0" y="0" width="900" height="600" fill="#012030"></rect><path d="M0 453L129 472L257 417L386 465L514 441L643 417L771 444L900 429L900 601L771 601L643 601L514 601L386 601L257 601L129 601L0 601Z" fill="#dafdba"></path><path d="M0 492L129 496L257 453L386 461L514 464L643 457L771 449L900 478L900 601L771 601L643 601L514 601L386 601L257 601L129 601L0 601Z" fill="#acebb3"></path><path d="M0 490L129 510L257 495L386 489L514 512L643 523L771 507L900 507L900 601L771 601L643 601L514 601L386 601L257 601L129 601L0 601Z" fill="#7cd8b0"></path><path d="M0 549L129 555L257 569L386 567L514 574L643 548L771 566L900 547L900 601L771 601L643 601L514 601L386 601L257 601L129 601L0 601Z" fill="#45c4b0"></path></svg>