<svg id="visual" viewBox="0 0 900 600" width="900" height="600" xmlns="http://www.w3.org/2000/svg" xmlns:xlink="http://www.w3.org/1999/xlink" version="1.1"><rect x="0" y="0" width="900" height="600" fill="#140021"></rect><path d="M245 0L557 0L557 55L382 55L382 109L309 109L309 164L294 164L294 218L371 218L371 273L200 273L200 327L453 327L453 382L214 382L214 436L280 436L280 491L347 491L347 545L475 545L475 600L0 600L0 545L0 545L0 491L0 491L0 436L0 436L0 382L0 382L0 327L0 327L0 273L0 273L0 218L0 218L0 164L0 164L0 109L0 109L0 55L0 55L0 0L0 0Z" fill="#9900ff"></path><path d="M267 0L480 0L480 55L381 55L381 109L179 109L179 164L410 164L410 218L358 218L358 273L206 273L206 327L342 327L342 382L426 382L426 436L299 436L299 491L297 491L297 545L424 545L424 600L0 600L0 545L0 545L0 491L0 491L0 436L0 436L0 382L0 382L0 327L0 327L0 273L0 273L0 218L0 218L0 164L0 164L0 109L0 109L0 55L0 55L0 0L0 0Z" fill="#8e00ec"></path><path d="M249 0L361 0L361 55L252 55L252 109L302 109L302 164L392 164L392 218L219 218L219 273L195 273L195 327L419 327L419 382L189 382L189 436L289 436L289 491L356 491L356 545L428 545L428 600L0 600L0 545L0 545L0 491L0 491L0 436L0 436L0 382L0 382L0 327L0 327L0 273L0 273L0 218L0 218L0 164L0 164L0 109L0 109L0 55L0 55L0 0L0 0Z" fill="#8200d9"></path><path d="M243 0L338 0L338 55L299 55L299 109L254 109L254 164L305 164L305 218L285 218L285 273L272 273L272 327L363 327L363 382L253 382L253 436L153 436L153 491L302 491L302 545L304 545L304 600L0 600L0 545L0 545L0 491L0 491L0 436L0 436L0 382L0 382L0 327L0 327L0 273L0 273L0 218L0 218L0 164L0 164L0 109L0 109L0 55L0 55L0 0L0 0Z" fill="#7700c6"></path><path d="M203 0L282 0L282 55L115 55L115 109L245 109L245 164L104 164L104 218L249 218L249 273L221 273L221 327L278 327L278 382L262 382L262 436L167 436L167 491L290 491L290 545L137 545L137 600L0 600L0 545L0 545L0 491L0 491L0 436L0 436L0 382L0 382L0 327L0 327L0 273L0 273L0 218L0 218L0 164L0 164L0 109L0 109L0 55L0 55L0 0L0 0Z" fill="#6c00b4"></path><path d="M91 0L118 0L118 55L119 55L119 109L139 109L139 164L132 164L132 218L109 218L109 273L149 273L149 327L80 327L80 382L92 382L92 436L167 436L167 491L194 491L194 545L181 545L181 600L0 600L0 545L0 545L0 491L0 491L0 436L0 436L0 382L0 382L0 327L0 327L0 273L0 273L0 218L0 218L0 164L0 164L0 109L0 109L0 55L0 55L0 0L0 0Z" fill="#6100a2"></path><path d="M55 0L135 0L135 55L52 55L52 109L134 109L134 164L103 164L103 218L138 218L138 273L48 273L48 327L38 327L38 382L126 382L126 436L113 436L113 491L55 491L55 545L79 545L79 600L0 600L0 545L0 545L0 491L0 491L0 436L0 436L0 382L0 382L0 327L0 327L0 273L0 273L0 218L0 218L0 164L0 164L0 109L0 109L0 55L0 55L0 0L0 0Z" fill="#560090"></path></svg>